# xmcd
#
# Track frame offsets:
#	150
#	34077
#	59654
#	89110
#	119867
#	175278
#
# Disc length: 2831 seconds
#
# Revision: 1
# Processed by: cddbd v1.5.2PL0 Copyright (c) Steve Scherf et al.
# Submitted via: audiograbber 1.83.01
#
DISCID=5c0b0d06
DTITLE=Grateful Dead - 82-08-10 Fieldhouse, University of Iowa, Iowa City, IA
DYEAR=1900
DGENRE=
TTITLE0=China Cat Sunflower
TTITLE1=I Know You Rider
TTITLE2=Lost Sailor
TTITLE3=Saint Of Circumstances
TTITLE4=Eyes Of The World
TTITLE5=Drums
EXTD=
EXTT0=
EXTT1=
EXTT2=
EXTT3=
EXTT4=
EXTT5=
PLAYORDER=
